<?xml version="1.0" standalone="no"?>
<!DOCTYPE svg PUBLIC "-//W3C//DTD SVG 20010904//EN" "http://www.w3.org/TR/2001/REC-SVG-20010904/DTD/svg10.dtd">
<svg version="1.0" xmlns="http://www.w3.org/2000/svg" width="256.000000pt" height="273.000000pt"
    viewBox="0 0 256.000000 273.000000" preserveAspectRatio="xMidYMid meet">

    <g transform="translate(0.000000,273.000000) scale(0.100000,-0.100000)" fill="#ffffff" stroke="none">
        <path d="M1247 2712 c-10 -10 -17 -24 -17 -30 0 -39 -80 -250 -140 -368 -208
-413 -555 -721 -994 -882 -126 -46 -123 -89 11 -137 112 -39 312 -145 423
-222 122 -86 335 -300 422 -423 114 -161 242 -432 273 -580 13 -64 55 -89 88
-52 8 9 23 46 32 82 42 165 150 390 263 550 86 122 300 336 422 422 113 80
271 164 401 213 164 63 167 97 11 156 -368 138 -688 399 -891 726 -92 149
-170 324 -206 463 -24 95 -60 124 -98 82z m67 -294 c37 -96 123 -260 186 -352
181 -269 426 -485 717 -632 68 -35 123 -66 124 -69 0 -4 -45 -28 -100 -55
-313 -153 -562 -374 -758 -672 -62 -94 -158 -284 -183 -360 -6 -21 -15 -38
-18 -38 -4 0 -18 28 -31 63 -162 422 -495 786 -911 996 -63 32 -115 62 -115
67 0 5 47 32 105 60 414 204 759 579 921 1002 13 34 26 62 30 62 3 0 18 -33
33 -72z" />
    </g>
</svg>