<?xml version="1.0" standalone="no"?>
<!DOCTYPE svg PUBLIC "-//W3C//DTD SVG 20010904//EN"
 "http://www.w3.org/TR/2001/REC-SVG-20010904/DTD/svg10.dtd">
<svg version="1.0" xmlns="http://www.w3.org/2000/svg"
 width="512.000000pt" height="512.000000pt" viewBox="0 0 512.000000 512.000000"
 preserveAspectRatio="xMidYMid meet">

<g transform="translate(0.000000,512.000000) scale(0.100000,-0.100000)"
fill="#000000" stroke="none">
<path d="M1 4468 c1 -359 4 -642 6 -628 32 194 172 358 369 432 l59 23 1172 3
c1163 2 1173 2 1213 -18 45 -23 80 -80 80 -130 0 -50 -35 -107 -80 -130 -39
-20 -56 -20 -1173 -20 -1274 0 -1193 5 -1272 -75 -81 -81 -75 63 -75 -1775 0
-1838 -6 -1694 75 -1775 81 -81 -63 -75 1775 -75 1838 0 1694 -6 1775 75 80
79 75 -2 75 1272 0 1117 0 1134 20 1173 23 45 80 80 130 80 50 0 107 -35 130
-80 20 -40 20 -50 18 -1213 l-3 -1172 -23 -59 c-74 -197 -238 -337 -432 -369
-14 -2 269 -5 628 -6 l652 -1 -1 2218 c0 1806 -3 2210 -13 2177 -7 -22 -22
-58 -34 -80 -19 -37 -2347 -2375 -2365 -2375 -4 0 -178 -34 -388 -76 -253 -50
-390 -73 -410 -69 -43 10 -97 60 -110 104 -9 32 -1 86 66 426 l78 390 1166
1168 c719 720 1181 1176 1206 1189 22 12 58 27 80 34 33 10 -371 13 -2177 13
l-2218 1 1 -652z"/>
<path d="M4573 5109 c79 -18 124 -53 303 -233 180 -179 215 -224 233 -303 6
-25 9 61 10 255 l1 292 -292 -1 c-194 -1 -280 -4 -255 -10z"/>
<path d="M4371 4725 l-96 -95 177 -177 178 -178 90 90 c50 50 93 101 97 114 5
20 -17 46 -153 182 -94 95 -167 159 -178 159 -11 0 -61 -42 -115 -95z"/>
<path d="M3138 3493 l-917 -918 -42 -213 c-23 -117 -39 -215 -36 -219 4 -3
103 13 220 37 l214 42 919 919 919 919 -175 175 c-96 96 -177 175 -180 175 -3
0 -418 -413 -922 -917z"/>
<path d="M1 243 l-1 -243 243 1 c133 1 231 4 217 6 -220 37 -404 216 -450 438
-5 26 -8 -48 -9 -202z"/>
</g>
</svg>
