<?xml version="1.0" standalone="no"?>
<!DOCTYPE svg PUBLIC "-//W3C//DTD SVG 20010904//EN"
 "http://www.w3.org/TR/2001/REC-SVG-20010904/DTD/svg10.dtd">
<svg version="1.0" xmlns="http://www.w3.org/2000/svg"
 width="512.000000pt" height="512.000000pt" viewBox="0 0 512.000000 512.000000"
 preserveAspectRatio="xMidYMid meet">

<g transform="translate(0.000000,512.000000) scale(0.100000,-0.100000)"
fill="#ab8bd9" stroke="none">
<path d="M698 5104 c-60 -32 -58 0 -58 -861 l0 -788 -306 -305 c-168 -168
-312 -317 -320 -332 -22 -42 -21 -2075 1 -2118 30 -57 47 -60 350 -60 l275 0
0 -275 c0 -227 3 -281 15 -305 33 -64 -107 -60 1905 -60 2012 0 1872 -4 1905
60 12 24 15 78 15 305 l0 275 275 0 c303 0 320 3 350 60 22 43 23 2076 1 2118
-8 15 -152 164 -320 332 l-306 305 0 308 c0 248 -3 313 -14 335 -18 33 -982
995 -1013 1011 -15 8 -407 11 -1375 11 -1177 -1 -1357 -3 -1380 -16z m2610
-646 l2 -447 31 -30 30 -31 447 -2 447 -3 3 -532 2 -533 -1710 0 -1710 0 0
1008 c0 555 3 1012 7 1015 3 4 556 6 1227 5 l1221 -3 3 -447z m512 -3 l295
-295 -298 0 -297 0 0 295 c0 162 1 295 3 295 1 0 135 -133 297 -295z m-3180
-1440 l0 -135 -137 0 -138 0 135 135 c74 74 136 135 137 135 2 0 3 -61 3 -135z
m4110 -132 c0 -2 -61 -3 -135 -3 l-135 0 0 137 0 138 135 -135 c74 -74 135
-136 135 -137z m155 -1123 l0 -905 -2345 0 -2345 0 -3 895 c-1 492 0 901 3
908 3 10 478 12 2347 10 l2343 -3 0 -905z m-637 -1332 l-3 -213 -1705 0 -1705
0 -3 213 -2 212 1710 0 1710 0 -2 -212z"/>
<path d="M3713 2366 c-154 -50 -267 -190 -325 -401 -18 -68 -22 -106 -22 -255
0 -149 4 -187 22 -255 79 -288 257 -433 505 -412 93 8 169 31 235 70 l52 31
-2 326 -3 325 -175 0 -175 0 -3 -92 -3 -93 81 0 80 0 0 -169 0 -169 -32 -13
c-18 -8 -65 -14 -104 -14 -62 0 -76 4 -112 29 -100 69 -152 219 -152 439 0
328 146 521 341 452 24 -9 61 -32 81 -52 l37 -36 21 24 c11 13 39 48 62 77
l41 53 -39 40 c-21 22 -67 54 -102 71 -56 28 -75 32 -165 35 -68 2 -116 -2
-144 -11z"/>
<path d="M1258 1853 c-4 -532 -5 -545 -55 -590 -18 -17 -36 -23 -70 -23 -39 0
-50 5 -79 36 -19 19 -34 41 -34 47 0 7 -4 18 -8 25 -12 18 -182 -54 -182 -78
0 -33 53 -121 97 -159 57 -51 124 -73 218 -73 158 1 246 62 301 207 17 46 19
91 22 578 l3 527 -105 0 -105 0 -3 -497z"/>
<path d="M1730 1711 l0 -641 105 0 105 0 0 254 0 253 118 5 c99 4 128 9 173
30 149 68 215 190 207 383 -3 81 -9 111 -29 155 -37 79 -81 125 -157 162 l-66
33 -228 3 -228 4 0 -641z m393 445 c81 -29 110 -79 110 -186 0 -88 -23 -145
-75 -182 -28 -19 -48 -24 -125 -26 l-93 -4 0 206 0 206 73 0 c39 -1 89 -7 110
-14z"/>
<path d="M2620 1710 l0 -640 300 0 300 0 0 95 0 95 -195 0 -195 0 0 190 0 190
170 0 170 0 0 90 0 90 -170 0 -170 0 0 170 0 170 185 0 185 0 0 95 0 95 -290
0 -290 0 0 -640z"/>
</g>
</svg>
