<?xml version="1.0" standalone="no"?>
<!DOCTYPE svg PUBLIC "-//W3C//DTD SVG 20010904//EN" "http://www.w3.org/TR/2001/REC-SVG-20010904/DTD/svg10.dtd">
<svg version="1.0" xmlns="http://www.w3.org/2000/svg" width="512.000000pt" height="512.000000pt"
    viewBox="0 0 512.000000 512.000000" preserveAspectRatio="xMidYMid meet">

    <g transform="translate(0.000000,512.000000) scale(0.100000,-0.100000)" fill="#ffffff" stroke="none">
        <path d="M962 4620 c-226 -59 -404 -240 -463 -468 -18 -72 -19 -120 -19 -1162
0 -1049 1 -1089 20 -1164 29 -116 83 -209 171 -298 103 -106 166 -129 245 -92
42 20 70 55 86 105 19 64 -1 109 -86 192 -121 121 -111 10 -114 1219 -3 1130
-3 1129 53 1225 33 55 92 98 164 121 52 16 141 17 1116 17 1246 0 1131 11
1256 -116 82 -83 105 -94 174 -87 120 14 174 145 104 251 -76 115 -229 220
-375 257 -75 19 -114 20 -1168 19 -1041 0 -1094 -1 -1164 -19z" />
        <path d="M1855 3780 c-226 -45 -409 -206 -493 -432 l-27 -73 -3 -1107 c-3
-1242 -6 -1184 70 -1337 80 -162 241 -290 423 -336 90 -23 2228 -22 2325 1
203 47 384 211 458 416 l27 73 3 1124 c3 1256 7 1174 -70 1331 -57 117 -159
219 -279 278 -151 75 -95 72 -1309 71 -597 -1 -1103 -5 -1125 -9z m2169 -320
c167 -25 258 -111 286 -271 8 -44 10 -379 8 -1094 -3 -946 -5 -1034 -20 -1081
-24 -69 -69 -128 -121 -159 -94 -55 -95 -55 -1188 -55 -683 0 -1024 3 -1064
11 -156 29 -241 120 -265 285 -14 97 -13 1968 1 2069 24 179 111 269 280 293
89 13 1995 14 2083 2z" />
        <path d="M2920 2808 c-82 -43 -84 -50 -90 -296 l-5 -217 -217 -5 c-247 -6
-254 -8 -296 -93 -19 -37 -22 -55 -17 -88 9 -53 64 -115 113 -129 21 -5 124
-10 230 -10 l192 0 0 -209 c0 -199 1 -209 23 -241 32 -48 69 -72 119 -77 58
-7 118 23 149 74 23 36 24 48 27 245 l3 207 207 3 c197 3 209 4 245 27 51 31
81 91 74 149 -5 50 -29 87 -77 120 -32 21 -42 22 -241 22 l-209 0 0 193 c0
105 -5 208 -10 227 -17 62 -95 120 -160 120 -9 0 -36 -10 -60 -22z" />
    </g>
</svg>