<?xml version="1.0" standalone="no"?>
<!DOCTYPE svg PUBLIC "-//W3C//DTD SVG 20010904//EN" "http://www.w3.org/TR/2001/REC-SVG-20010904/DTD/svg10.dtd">
<svg version="1.0" xmlns="http://www.w3.org/2000/svg" width="512.000000pt" height="512.000000pt"
    viewBox="0 0 512.000000 512.000000" preserveAspectRatio="xMidYMid meet">

    <g transform="translate(0.000000,512.000000) scale(0.100000,-0.100000)" fill="#ab8bd9" stroke="none">
        <path d="M406 5104 c-134 -32 -279 -146 -344 -270 -66 -126 -62 24 -62 -2274
0 -2298 -4 -2148 62 -2274 48 -90 147 -185 238 -229 41 -19 102 -41 135 -47
43 -8 525 -10 1735 -8 l1675 3 59 23 c89 33 145 69 208 133 73 75 134 196 148
294 5 40 10 350 10 718 0 537 -2 653 -14 682 -15 35 -59 65 -96 65 -31 0 -77
-27 -92 -53 -10 -17 -14 -179 -18 -722 l-5 -700 -24 -49 c-33 -66 -91 -122
-160 -155 l-56 -26 -1670 0 -1670 0 -67 33 c-76 37 -120 82 -157 162 l-26 55
0 2095 0 2095 26 55 c37 80 81 125 157 162 l67 33 808 5 809 5 24 28 c41 48
29 128 -26 160 -26 16 -98 17 -822 16 -649 -1 -804 -3 -852 -15z" />
        <path d="M3561 5110 c-167 -24 -311 -69 -454 -142 -378 -194 -642 -539 -733
-958 -22 -100 -30 -355 -15 -461 88 -620 570 -1102 1190 -1190 106 -15 361 -7
461 15 265 58 492 179 685 367 207 201 334 431 397 717 32 145 32 407 0 551
-64 285 -182 502 -381 702 -260 260 -571 394 -936 404 -82 2 -179 0 -214 -5z
m294 -210 c270 -31 515 -149 706 -339 467 -468 459 -1216 -19 -1673 -258 -246
-602 -362 -948 -318 -743 93 -1208 835 -969 1546 56 166 142 302 279 440 158
159 320 253 528 309 156 41 276 51 423 35z" />
        <path d="M4225 4256 c-18 -9 -161 -165 -365 -399 -184 -212 -340 -386 -345
-386 -6 -1 -91 80 -190 179 -197 197 -217 210 -280 175 -38 -20 -55 -52 -55
-102 0 -35 14 -51 228 -266 125 -126 239 -235 254 -243 38 -20 70 -17 107 9
27 19 736 822 776 879 20 29 19 87 -1 117 -15 21 -70 52 -91 51 -4 -1 -21 -7
-38 -14z" />
        <path d="M705 1911 c-11 -5 -29 -19 -40 -31 -20 -22 -20 -36 -20 -600 l0 -578
24 -26 c33 -35 85 -44 127 -21 18 10 36 25 41 34 4 9 10 97 13 196 l5 180 161
5 160 5 75 37 c93 46 158 112 202 206 30 63 32 74 32 177 0 105 -2 113 -34
179 -37 77 -102 148 -171 189 -81 47 -145 57 -360 56 -107 0 -204 -4 -215 -8z
m467 -234 c121 -70 142 -234 44 -332 -54 -53 -98 -65 -245 -65 l-121 0 0 208
c0 115 3 212 8 216 4 5 66 6 137 4 121 -3 134 -5 177 -31z" />
        <path d="M1758 1903 c-14 -9 -31 -27 -37 -40 -16 -34 -15 -1133 0 -1167 28
-60 122 -71 170 -20 23 25 24 31 27 209 l3 183 162 4 c162 3 163 3 232 37 264
130 325 463 124 676 -27 28 -72 64 -100 80 -88 47 -136 55 -354 55 -169 -1
-204 -3 -227 -17z m430 -205 c66 -16 135 -87 151 -154 24 -98 -20 -193 -110
-238 -49 -24 -63 -26 -181 -26 l-128 0 0 215 0 215 111 0 c60 0 131 -5 157
-12z" />
        <path d="M2824 1901 c-44 -27 -60 -77 -41 -124 25 -59 46 -67 184 -67 l123 0
0 -485 c0 -533 1 -539 59 -569 38 -20 64 -20 102 0 58 30 59 36 59 569 l0 485
124 0 c108 0 126 2 149 20 38 30 52 80 33 123 -27 66 -35 67 -418 67 -321 0
-345 -1 -374 -19z" />
    </g>
</svg>