<?xml version="1.0" standalone="no"?>
<!DOCTYPE svg PUBLIC "-//W3C//DTD SVG 20010904//EN"
 "http://www.w3.org/TR/2001/REC-SVG-20010904/DTD/svg10.dtd">
<svg version="1.0" xmlns="http://www.w3.org/2000/svg"
 width="512.000000pt" height="512.000000pt" viewBox="0 0 512.000000 512.000000"
 preserveAspectRatio="xMidYMid meet">

<g transform="translate(0.000000,512.000000) scale(0.100000,-0.100000)"
fill="#000000" stroke="none">
<path d="M0 2653 l1 -2468 607 1516 c334 833 615 1527 625 1542 13 21 228 133
892 464 l874 437 -49 52 c-52 55 -67 98 -55 156 6 26 79 105 358 387 194 194
366 359 382 367 25 11 -251 13 -1802 14 l-1833 0 0 -2467z"/>
<path d="M3750 5109 c34 -13 1338 -1316 1356 -1354 11 -26 13 70 14 668 l0
697 -697 -1 c-465 0 -690 -4 -673 -10z"/>
<path d="M3472 4537 c-116 -117 -212 -217 -212 -222 0 -13 1042 -1055 1055
-1055 13 0 435 422 435 435 0 13 -1042 1055 -1055 1055 -6 0 -106 -96 -223
-213z"/>
<path d="M2345 3477 l-880 -442 -447 -1119 c-246 -616 -446 -1121 -445 -1122
2 -2 288 282 636 630 l633 633 -16 48 c-56 163 -14 338 108 460 179 178 455
178 631 1 139 -140 172 -343 84 -518 -100 -198 -334 -294 -544 -222 l-48 16
-633 -633 c-348 -348 -632 -634 -630 -636 1 -1 506 199 1122 445 l1119 447
442 881 441 881 -346 346 -347 345 -880 -441z"/>
<path d="M5106 3638 c-3 -13 -166 -184 -363 -380 -308 -306 -363 -357 -395
-363 -58 -11 -98 4 -153 56 l-51 48 -437 -874 c-331 -664 -443 -879 -464 -892
-15 -10 -709 -291 -1542 -625 l-1516 -607 2468 -1 2467 0 0 1830 c0 1007 -2
1830 -4 1830 -2 0 -6 -10 -10 -22z"/>
<path d="M2176 2376 c-71 -43 -94 -122 -57 -194 22 -43 84 -82 130 -82 75 0
151 75 151 149 0 51 -35 108 -80 131 -52 26 -96 25 -144 -4z"/>
<path d="M0 58 l0 -58 58 0 57 1 -37 20 c-22 11 -46 35 -57 57 l-20 37 -1 -57z"/>
</g>
</svg>
